HIERARCHY
ROOT SimulationBone
{
	OFFSET 0.000000 0.000000 0.000000
	CHANNELS 6 Xposition Yposition Zposition Zrotation Yrotation Xrotation 
	JOINT Hips
	{
		OFFSET 0.000000 0.000000 0.000000
		CHANNELS 6 Xposition Yposition Zposition Zrotation Yrotation Xrotation 
		JOINT LeftUpLeg
		{
			OFFSET 0.103459 1.857814 10.548504
			CHANNELS 3 Zrotation Yrotation Xrotation
			JOINT LeftLeg
			{
				OFFSET 43.500000 -0.000004 -0.000011
				CHANNELS 3 Zrotation Yrotation Xrotation
				JOINT LeftFoot
				{
					OFFSET 42.372196 -0.000004 0.000004
					CHANNELS 3 Zrotation Yrotation Xrotation
					JOINT LeftToe
					{
						OFFSET 17.300003 0.000001 -0.000008
						CHANNELS 3 Zrotation Yrotation Xrotation
						End Site
						{
							OFFSET 0.000000 0.000000 0.000000
						}
					}
				}
			}
		}
		JOINT RightUpLeg
		{
			OFFSET 0.103457 1.857841 -10.548511
			CHANNELS 3 Zrotation Yrotation Xrotation
			JOINT RightLeg
			{
				OFFSET 43.500042 -0.000038 0.000000
				CHANNELS 3 Zrotation Yrotation Xrotation
				JOINT RightFoot
				{
					OFFSET 42.372269 -0.000023 0.000011
					CHANNELS 3 Zrotation Yrotation Xrotation
					JOINT RightToe
					{
						OFFSET 17.300003 -0.000001 0.000023
						CHANNELS 3 Zrotation Yrotation Xrotation
						End Site
						{
							OFFSET 0.000000 0.000000 0.000000
						}
					}
				}
			}
		}
		JOINT Spine
		{
			OFFSET 6.901971 -2.603744 -0.000012
			CHANNELS 3 Zrotation Yrotation Xrotation
			JOINT Spine1
			{
				OFFSET 12.588097 -0.000002 0.000018
				CHANNELS 3 Zrotation Yrotation Xrotation
				JOINT Spine2
				{
					OFFSET 12.343208 0.000014 -0.000019
					CHANNELS 3 Zrotation Yrotation Xrotation
					JOINT Neck
					{
						OFFSET 25.832897 0.000008 0.000016
						CHANNELS 3 Zrotation Yrotation Xrotation
						JOINT Head
						{
							OFFSET 11.766600 -0.000006 0.000008
							CHANNELS 3 Zrotation Yrotation Xrotation
							End Site
							{
								OFFSET 0.000000 0.000000 0.000000
							}
						}
					}
					JOINT LeftShoulder
					{
						OFFSET 19.745909 -1.480356 6.000120
						CHANNELS 3 Zrotation Yrotation Xrotation
						JOINT LeftArm
						{
							OFFSET 11.284115 -0.000000 -0.000025
							CHANNELS 3 Zrotation Yrotation Xrotation
							JOINT LeftForeArm
							{
								OFFSET 33.000057 0.000003 0.000029
								CHANNELS 3 Zrotation Yrotation Xrotation
								JOINT LeftHand
								{
									OFFSET 25.200006 0.000029 0.000011
									CHANNELS 3 Zrotation Yrotation Xrotation
									End Site
									{
										OFFSET 0.000000 0.000000 0.000000
									}
								}
							}
						}
					}
					JOINT RightShoulder
					{
						OFFSET 19.746088 -1.480379 -6.000049
						CHANNELS 3 Zrotation Yrotation Xrotation
						JOINT RightArm
						{
							OFFSET 11.284159 -0.000019 -0.000011
							CHANNELS 3 Zrotation Yrotation Xrotation
							JOINT RightForeArm
							{
								OFFSET 33.000076 -0.000001 0.000001
								CHANNELS 3 Zrotation Yrotation Xrotation
								JOINT RightHand
								{
									OFFSET 25.199781 0.000139 0.000430
									CHANNELS 3 Zrotation Yrotation Xrotation
									End Site
									{
										OFFSET 0.000000 0.000000 0.000000
									}
								}
							}
						}
					}
				}
			}
		}
	}
}
MOTION
Frames: 10
Frame Time: 0.016667
81.275725 0.000000 -519.972048 180.000000 9.405122 180.000000 1.220688 88.819356 0.682641 96.868872 1.601023 179.066547 163.575931 -0.348329 177.873716 -9.067010 -2.415671 -5.208645 71.951838 3.654626 -0.422023 21.454552 0.003092 -0.000000 -163.714856 -4.761756 178.184900 -18.173504 2.446700 -5.061907 90.284096 2.217522 -7.244188 21.454558 -0.003108 -0.000018 8.228004 0.187840 1.367408 6.446803 0.299440 2.743104 6.129094 0.316132 2.741252 17.680879 5.154835 4.684641 -10.488639 -10.002052 7.962472 179.719653 -78.308549 -1.215234 -6.022437 54.587420 28.620924 -85.328263 -6.628845 2.562275 -15.977403 -15.795226 2.567400 157.119905 72.049701 -22.123819 -5.884731 -48.298339 -26.225551 -90.666781 5.934650 -2.792078 -11.278816 -4.065750 -8.924485 
80.104754 0.000000 -520.076370 180.000000 9.668336 180.000000 1.246940 88.971313 0.563092 96.786990 1.055066 178.854837 164.375483 0.451399 178.550188 -8.297389 -2.150204 -5.711510 69.548926 4.251441 0.262282 21.454555 0.003092 -0.000001 -163.335546 -4.060394 178.417109 -18.562591 2.147368 -5.335241 89.748562 2.417409 -7.031804 21.454557 -0.003108 -0.000018 8.165155 0.018910 1.372821 6.317043 -0.036901 2.744599 5.999350 -0.020195 2.744776 17.713034 5.123510 4.752995 -10.350292 -9.858698 7.975858 179.520007 -78.203509 -1.010178 -7.067624 54.342380 28.253121 -86.319014 -6.070461 2.567022 -16.092132 -16.051295 2.072984 156.344969 71.895879 -22.925406 -7.117997 -48.207993 -25.755336 -91.435455 5.395242 -2.788251 -11.314131 -4.981082 -7.562782 
78.926056 0.000000 -520.189390 180.000000 9.917502 180.000000 1.300811 89.082026 0.443837 96.639043 0.619703 178.822066 164.987461 1.097720 179.467684 -7.953033 -1.924089 -6.526280 67.349941 4.764956 -0.004717 21.454555 0.003092 -0.000001 -163.246332 -3.538911 178.817805 -19.428917 1.802157 -5.609452 89.135661 2.619752 -6.789851 21.454559 -0.003108 -0.000018 8.077469 -0.127915 1.349592 6.138290 -0.326975 2.690517 5.820572 -0.310590 2.692445 17.800525 5.100206 4.805629 -10.192388 -9.672276 7.956277 178.490115 -78.072504 0.041767 -7.803166 53.998632 28.127548 -87.390526 -5.432662 2.569738 -16.030060 -16.323615 0.839305 155.780313 71.758950 -23.511015 -8.283845 -48.137718 -25.411389 -92.229489 4.872594 -2.786218 -11.510469 -5.706396 -6.490236 
77.741243 0.000000 -520.310631 180.000000 10.152437 180.000000 1.364788 89.175301 0.336887 96.485672 0.209946 178.956210 165.456046 1.601806 -179.743586 -8.036109 -1.930738 -7.261270 65.881709 5.173816 -0.375381 21.454555 0.003092 -0.000000 -163.304455 -3.104508 179.288081 -20.588068 1.427798 -5.877830 88.463544 2.845202 -6.405987 21.454563 -0.003108 -0.000018 7.988432 -0.272364 1.301156 5.957214 -0.611079 2.586648 5.639449 -0.595315 2.590292 17.879441 5.162744 4.824720 -10.018140 -9.555745 7.921636 176.819937 -78.013514 1.744887 -8.374789 53.658664 28.113645 -88.529052 -4.715088 2.569772 -15.765912 -16.632629 -0.931376 155.463710 71.626360 -23.842542 -9.362785 -48.098092 -25.027871 -93.070055 4.266060 -2.782380 -11.750830 -6.268458 -5.702523 
76.551862 0.000000 -520.438405 180.000000 10.372958 180.000000 1.427747 89.279510 0.247457 96.395929 -0.279285 179.227660 165.873378 2.039519 -179.391435 -8.423628 -2.287696 -7.576248 65.509891 5.548962 -0.009217 21.454554 0.003092 0.000000 -163.354576 -2.640542 179.750338 -21.846546 1.029166 -6.144600 87.736216 3.120244 -5.775258 21.454563 -0.003108 -0.000018 7.922752 -0.437482 1.231382 5.822887 -0.936101 2.439361 5.505064 -0.921221 2.444969 17.880332 5.372661 4.803628 -9.820568 -9.585987 7.889285 174.808299 -78.111332 3.791449 -8.965152 53.415096 28.079891 -89.715262 -3.934321 2.567701 -15.326811 -17.017167 -2.936484 155.386280 71.488727 -23.929450 -10.343908 -48.098357 -24.477111 -93.973795 3.515373 -2.771915 -11.913107 -6.703683 -5.116547 
75.359644 0.000000 -520.570377 180.000000 10.578459 180.000000 1.502077 89.382751 0.147650 96.373812 -0.850999 179.574513 166.269344 2.560697 -179.382597 -9.073158 -2.712965 -7.545255 65.924199 5.834382 0.809884 21.454553 0.003092 -0.000000 -163.477217 -2.122100 -179.700269 -23.363622 0.545398 -6.460259 86.906554 3.470884 -4.948227 21.454560 -0.003108 -0.000017 7.880039 -0.622142 1.152288 5.734697 -1.300361 2.272615 5.416794 -1.286481 2.280426 17.816519 5.666656 4.768707 -9.598432 -9.623145 7.844699 172.628072 -78.276598 6.006210 -9.650877 53.174086 28.049465 -90.956207 -3.156651 2.568336 -14.857021 -17.537202 -4.901043 155.383087 71.379189 -23.938764 -11.232600 -48.158556 -23.969930 -94.925490 2.835207 -2.765447 -12.059000 -6.873567 -4.568089 
74.167397 0.000000 -520.705663 180.000000 10.767798 180.000000 1.596746 89.469396 0.011816 96.397738 -1.467691 179.931623 166.657663 3.259172 -179.540830 -9.930733 -2.925732 -7.339628 66.694654 5.962552 1.603155 21.454551 0.003092 -0.000000 -163.804922 -1.553929 -179.009972 -25.340796 -0.054226 -6.848003 85.906357 3.910123 -3.972559 21.454556 -0.003108 -0.000016 7.851906 -0.815297 1.078953 5.676037 -1.682285 2.117041 5.358025 -1.669336 2.127162 17.722465 5.960149 4.741749 -9.355725 -9.517340 7.766341 170.471340 -78.404501 8.196368 -10.485432 52.831257 28.073133 -92.258995 -2.462112 2.578249 -14.498401 -18.221624 -6.588620 155.273357 71.325888 -24.054104 -12.008681 -48.290585 -23.715533 -95.914083 2.424636 -2.779631 -12.278588 -6.667131 -3.920354 
72.978395 0.000000 -520.843921 180.000000 10.939680 180.000000 1.682693 89.549179 -0.136251 96.405553 -2.031536 -179.744727 167.041237 3.939805 -179.765975 -10.813639 -3.052037 -7.085635 67.624630 5.988077 2.264469 21.454551 0.003092 0.000000 -164.452541 -0.978303 -178.455672 -27.802846 -0.593477 -7.205676 84.634608 4.404325 -2.724726 21.454555 -0.003108 -0.000016 7.823293 -0.990422 1.030546 5.616802 -2.029456 2.012364 5.298689 -2.017131 2.024586 17.633376 6.208199 4.692993 -9.110257 -9.295805 7.632061 168.442013 -78.489181 10.257327 -11.545669 52.423555 28.143623 -93.604552 -1.936873 2.600743 -14.271569 -18.910381 -7.890486 154.954478 71.294802 -24.382454 -12.530841 -48.443368 -23.581640 -96.976780 2.147159 -2.809271 -12.598430 -6.268266 -3.228218 
71.794394 0.000000 -520.983045 180.000000 11.093037 180.000000 1.731793 89.632205 -0.268574 96.355205 -2.464977 -179.494515 167.434468 4.410962 -179.985194 -11.553641 -3.266017 -6.882331 68.598277 5.991542 2.791129 21.454550 0.003092 0.000000 -165.497577 -0.416897 -178.264689 -30.736779 -0.902609 -7.472128 83.015821 4.954402 -1.074349 21.454559 -0.003108 -0.000018 7.783885 -1.126228 1.022352 5.536058 -2.299831 1.990339 5.217889 -2.287634 2.004195 17.572999 6.377888 4.592615 -8.878198 -9.025579 7.430811 166.650815 -78.549592 12.076691 -12.897835 52.008771 28.225906 -94.959488 -1.632928 2.639074 -14.186950 -19.460498 -8.631798 154.388845 71.264979 -24.963429 -12.714691 -48.575232 -23.377021 -98.144330 1.830645 -2.840328 -13.013025 -5.867074 -2.623161 
70.616328 0.000000 -521.120479 180.000000 11.227211 180.000000 1.760405 89.704712 -0.399463 96.318757 -2.835791 -179.369299 167.899560 4.785796 179.852131 -12.164226 -3.514210 -6.784026 69.578173 6.026174 3.214085 21.454551 0.003092 0.000000 -166.859418 0.249695 -178.134626 -34.136598 -1.082122 -7.814304 81.109390 5.706041 0.962474 21.454563 -0.003108 -0.000019 7.749502 -1.237805 1.049805 5.464990 -2.523546 2.040796 5.146792 -2.511041 2.056002 17.519529 6.445013 4.461104 -8.655111 -8.756203 7.198833 165.391008 -78.605588 13.355524 -14.538855 51.586287 28.236259 -96.258668 -1.459762 2.685484 -14.298671 -19.996888 -8.263606 153.711493 71.333625 -25.653005 -12.832261 -48.755935 -23.005072 -99.374170 1.494480 -2.871006 -13.433401 -5.383886 -2.357574 
